<?xml version="1.0" encoding="utf-8"?>
<!-- Generator: Adobe Illustrator 19.2.1, SVG Export Plug-In . SVG Version: 6.00 Build 0)  -->
<svg version="1.1" id="layer" xmlns="http://www.w3.org/2000/svg" xmlns:xlink="http://www.w3.org/1999/xlink" x="0px" y="0px"
	 viewBox="0 0 652 652" style="enable-background:new 0 0 652 652;" xml:space="preserve">
<style type="text/css">
	.st0{fill:#6e6e6e;}
</style>
<path class="st0" d="M474.5,314.3c-16.1,0-30.1,5.9-41.6,17.7c-11.8,11.8-17.4,26-17.4,42.5s5.6,30.7,17.4,42.2
	c11.5,11.8,25.4,17.7,41.6,17.7s30.4-5.9,42.2-17.7c11.5-11.5,17.4-25.7,17.4-42.2s-5.9-30.7-17.4-42.5
	C504.9,320.2,490.9,314.3,474.5,314.3z M496.8,396.5c-5.9,6.2-13.3,9.3-22,9.3c-8.4,0-15.8-3.1-22-9.3c-5.9-6.2-9.3-13.6-9.3-22.3
	c0-9,3.4-16.4,9.3-22.3c5.9-6.2,13.3-9.3,22-9c8.7-0.3,16.1,2.8,22.3,9c5.9,5.9,8.7,13.3,9,22.3
	C505.8,382.8,502.7,390.3,496.8,396.5z M99.9,313.1c8.7,0,16.7,2.5,24.5,7.4c6.8,4.7,12.4,11.2,16.1,18.9h29.8
	c-4.3-15.8-12.7-29.1-25.7-39.1c-13-10.5-28.2-15.5-44.7-15.5c-20.5,0-37.2,7.1-51.5,21.7c-14.6,14.6-21.7,31.9-21.7,52.4
	c0,20.2,7.1,38.1,21.7,52.7c14.3,14.3,31.3,21.4,51.8,21.4c16.4,0,31.6-5,44.7-15.2c12.7-10.5,21.4-23.3,25.7-39.1h-29.8
	c-3.7,7.8-9.3,14-16.1,18.9c-7.8,4.7-15.5,7.1-24.5,7.1c-12.7,0-23.3-4.7-31.9-13.3c-9-9-13.3-19.5-13-32.2
	c-0.3-12.7,4-23.3,13-32.2C76.7,317.7,87.5,313.1,99.9,313.1z M313.9,321.5c-9.9-5.3-20.8-7.8-33.2-7.4c-19.2-0.3-32.6,5-40.3,15.2
	c-5,6.2-7.4,14.6-8.1,24.8h28.5c0.6-5,2.2-8.4,4-10.5c3.1-3.7,8.1-5.9,15.2-5.6c5.9-0.3,10.5,0.9,14,2.8c3.4,1.6,4.7,5,5,9.6
	c0,3.7-2.2,6.8-6.5,8.7l-22,3.4c-10.2,1.2-18.3,3.7-24.5,7.4c-10.5,6.2-15.8,16.4-15.5,31c-0.3,10.2,3.1,18.3,9.6,24.5
	c5.9,5,13.6,7.8,23.3,8.1c15.5-0.3,27.9-4,36.6-11.8v11.8h28.5v-83.7C328.1,336,323.2,326.4,313.9,321.5z M298.1,386.9
	c0,9.9-2.8,16.7-8.1,20.5c-5.6,3.7-11.2,5.9-17.7,5.9c-4,0-7.4-1.2-10.2-3.4c-2.8-2.5-4-5.9-4-11.2c0-5.9,2.2-9.9,6.8-13
	c2.8-1.6,7.4-3.1,13.3-3.7l14.3-3.7l5.6-3.1V386.9z M184.9,284.9h28.5v148.5h-28.5V284.9z M405.4,315.3l-10.9,3.1
	c-7.8,3.1-14.6,8.4-20.2,16.1v-14.6l-27-0.3v114.1h28.2v-54.6c0-9.3,1.2-15.8,3.7-20.2c1.9-4.3,5.6-8.1,9.9-10.9
	c5-3.4,10.2-5,15.5-5l8.7,0.6l-0.3-29.1L405.4,315.3z M589.5,231.8L521,300.7l18,18l68.5-68.8L589.5,231.8z M465.2,217.6h25.4v73.8
	h-25.4V217.6z M551.4,347.2h75.3v25.4h-75.3V347.2z"/>
</svg>
